#N canvas 197 293 516 362 10;
#X obj 67 89 counter 0 10;
#X msg 124 227 max \$1;
#X obj 113 125 sel 1;
#X obj 65 44 r beat;
#X obj 48 238 outlet;
#X obj 117 48 bng 15 250 50 0 empty empty empty 17 7 0 10 -262144 -1
-1;
#X floatatom 58 169 5 0 0 0 - - -;
#X obj 115 189 + \$1;
#X obj 116 156 random \$2;
#X text 150 188 minimum beats to wait;
#X text 184 155 range of beats to wait \; this + min = max;
#X obj 363 191 textfile;
#X obj 317 80 random 15;
#X obj 338 115 + 5;
#X obj 406 92 uzi;
#X obj 407 123 random \$2;
#X obj 412 154 + \$1;
#X msg 446 192 add \$1;
#X obj 316 58 bng 15 250 50 0 empty empty empty 17 7 0 10 -262144 -1
-1;
#X obj 314 21 loadbang;
#X msg 415 249 rewind;
#X text 245 37 randomly generated looping sequence;
#X connect 0 0 6 0;
#X connect 0 2 2 0;
#X connect 1 0 0 0;
#X connect 2 0 4 0;
#X connect 2 0 8 0;
#X connect 2 0 11 0;
#X connect 3 0 0 0;
#X connect 3 0 5 0;
#X connect 8 0 7 0;
#X connect 11 0 1 0;
#X connect 11 1 20 0;
#X connect 12 0 13 0;
#X connect 13 0 14 0;
#X connect 14 0 15 0;
#X connect 15 0 16 0;
#X connect 16 0 17 0;
#X connect 17 0 11 0;
#X connect 18 0 12 0;
#X connect 19 0 18 0;
#X connect 20 0 11 0;
