#N canvas 425 100 712 502 10;
#X obj 37 226 pack 0 0 0;
#X obj 39 266 hsv2rgb;
#X obj 45 300 unpack 0 0 0;
#X obj 48 344 * 255;
#X obj 83 378 * 255;
#X obj 114 343 * 255;
#X obj 56 414 pack 0 0 0;
#X obj 37 41 PhaseWithOffset 0.000555556 \$1;
#X obj 69 192 f \$2;
#X obj 108 194 f \$3;
#X text 376 74 \$1: H value of base color \$2: S value \$3: V value
;
#X obj 58 465 outlet;
#X obj 163 130 loadbang;
#X obj 36 131 snapshot~;
#X obj 75 101 r colorSnapshot;
#X obj 258 127 inlet;
#X text 303 126 audio listener;
#X obj 259 158 t b b b;
#X obj 323 311 pack 0 0 0;
#X obj 239 384 adc~;
#X obj 328 445 *~;
#X obj 427 120 bng 15 250 50 0 empty empty empty 17 7 0 10 -262144
-1 -1;
#X obj 540 388 Scope~ 130 130 256 3 128 -1 1 0 0 0 0 102 255 51 135
135 135 0;
#X obj 416 415 print;
#X msg 327 351 0 \$1 \, 1 \$2 \$1 \, 0 \$3 \$2;
#X obj 322 400 vline~;
#X obj 259 186 random 5000;
#X obj 343 188 random 5000;
#X obj 423 192 random 5000;
#X obj 233 434 *~ 10;
#X obj 36 83 +~;
#X obj 216 245 +;
#X obj 245 276 +;
#X obj 160 283 t f b;
#X msg 180 332 1;
#X obj 179 371 metro 1;
#X obj 171 412 random 10;
#X obj 163 315 delay;
#X msg 140 380 0;
#X obj 362 240 + 0;
#X obj 416 246 + 0;
#X connect 0 0 1 0;
#X connect 1 0 2 0;
#X connect 2 0 3 0;
#X connect 2 1 4 0;
#X connect 2 2 5 0;
#X connect 3 0 6 0;
#X connect 4 0 6 1;
#X connect 5 0 6 2;
#X connect 6 0 11 0;
#X connect 7 0 30 0;
#X connect 8 0 0 1;
#X connect 9 0 0 2;
#X connect 12 0 8 0;
#X connect 12 0 9 0;
#X connect 13 0 0 0;
#X connect 14 0 13 0;
#X connect 15 0 17 0;
#X connect 17 0 26 0;
#X connect 17 1 27 0;
#X connect 17 2 28 0;
#X connect 18 0 24 0;
#X connect 19 0 29 0;
#X connect 19 1 29 0;
#X connect 20 0 22 0;
#X connect 20 0 30 1;
#X connect 21 0 17 0;
#X connect 24 0 23 0;
#X connect 24 0 25 0;
#X connect 25 0 20 1;
#X connect 26 0 18 0;
#X connect 26 0 31 0;
#X connect 27 0 39 0;
#X connect 28 0 40 0;
#X connect 29 0 20 0;
#X connect 30 0 13 0;
#X connect 31 0 33 0;
#X connect 32 0 31 1;
#X connect 33 0 37 0;
#X connect 33 1 34 0;
#X connect 34 0 35 0;
#X connect 35 0 36 0;
#X connect 35 0 13 0;
#X connect 36 0 35 1;
#X connect 37 0 38 0;
#X connect 38 0 35 0;
#X connect 39 0 18 1;
#X connect 39 0 32 0;
#X connect 40 0 18 2;
#X connect 40 0 32 1;
