#N canvas 221 91 622 413 10;
#X obj 89 337 outlet;
#X obj 92 89 BeatListener \$1 \$2;
#X obj 88 155 random 5;
#X obj 74 248 spigot;
#X obj 106 217 == 0;
#X obj 173 247 spigot;
#X obj 274 244 spigot;
#X obj 373 239 spigot;
#X obj 470 234 spigot;
#X obj 205 216 == 1;
#X obj 306 213 == 2;
#X obj 405 208 == 3;
#X obj 502 203 == 4;
#X text 182 278 These pull in from the "Virtual Light Sources" which
pull in from colors;
#X obj 45 219 r v-light1;
#X obj 245 215 r v-light3;
#X obj 344 210 r v-light4;
#X obj 441 205 r v-light5;
#X obj 126 259 tgl 15 0 empty empty empty 17 7 0 10 -262144 -1 -1 1
1;
#X obj 144 218 r v-light2;
#X connect 1 0 2 0;
#X connect 2 0 4 0;
#X connect 2 0 9 0;
#X connect 2 0 10 0;
#X connect 2 0 11 0;
#X connect 2 0 12 0;
#X connect 3 0 0 0;
#X connect 4 0 3 1;
#X connect 4 0 18 0;
#X connect 5 0 0 0;
#X connect 6 0 0 0;
#X connect 7 0 0 0;
#X connect 8 0 0 0;
#X connect 9 0 5 1;
#X connect 10 0 6 1;
#X connect 11 0 7 1;
#X connect 12 0 8 1;
#X connect 14 0 3 0;
#X connect 15 0 6 0;
#X connect 16 0 7 0;
#X connect 17 0 8 0;
#X connect 19 0 5 0;
