#N canvas 1 22 1280 774 10;
#X msg 1078 675 connect 127.0.0.1 7700;
#X msg 1095 652 disconnect;
#X obj 1077 702 sendOSC;
#X obj 1082 525 tgl 15 0 empty empty empty 17 7 0 10 -262144 -1 -1
1 1;
#X obj 1087 553 metro 100;
#X obj 1188 652 r osc;
#X obj 964 474 beat;
#X obj 646 297 adc~;
#X obj 641 421 bng 15 250 50 0 empty empty empty 17 7 0 10 -262144
-1 -1;
#X obj 489 707 s beatRange;
#X obj 492 664 f 10;
#X obj 491 568 loadbang;
#X obj 492 615 bng 15 250 50 0 empty empty empty 17 7 0 10 -262144
-1 -1;
#X floatatom 562 669 5 0 0 0 - - -;
#X floatatom 764 450 5 0 0 0 - - -;
#X obj 988 644 loadbang;
#X obj 728 619 + 0.5;
#X obj 693 566 f 0.5;
#X floatatom 692 497 5 0 0 0 - - -;
#X obj 719 643 expr if($f1 > 1 \, 1 \, if($f1 < 0 \, 0 \, $f1));
#X floatatom 802 570 10 0 0 0 - - -;
#N canvas 0 0 1280 774 randomSpread 0;
#X obj 56 41 r random;
#X obj 61 100 s random1;
#X obj 131 102 s random2;
#X obj 201 104 s random3;
#X obj 269 107 s random4;
#X obj 335 108 s random5;
#X connect 0 0 1 0;
#X connect 0 0 2 0;
#X connect 0 0 3 0;
#X connect 0 0 4 0;
#X connect 0 0 5 0;
#X restore 1118 145 pd randomSpread;
#N canvas 463 254 450 300 fixtures 0;
#N canvas 784 388 450 300 fixture1 0;
#X floatatom 43 162 5 0 0 0 - - -;
#X msg 42 203 send /1/fader \$1;
#X obj 43 129 random 255;
#X obj 152 127 random 255;
#X floatatom 154 163 5 0 0 0 - - -;
#X msg 153 204 send /2/fader2 \$1;
#X obj 271 128 random 255;
#X floatatom 271 162 5 0 0 0 - - -;
#X msg 269 206 send /2/fader1 \$1;
#X text 51 182 Red 1;
#X text 287 181 Blue 1;
#X text 160 180 Green 1;
#X obj 273 237 s osc;
#X obj 44 243 s osc;
#X obj 152 238 s osc;
#X obj 106 92 inlet;
#X obj 223 92 inlet;
#X obj 324 93 inlet;
#X obj 43 96 r random1;
#X obj 47 31 r rgb1;
#X obj 47 64 unpack 0 0 0;
#X connect 0 0 1 0;
#X connect 1 0 13 0;
#X connect 2 0 0 0;
#X connect 3 0 4 0;
#X connect 4 0 5 0;
#X connect 5 0 14 0;
#X connect 6 0 7 0;
#X connect 7 0 8 0;
#X connect 8 0 12 0;
#X connect 15 0 0 0;
#X connect 16 0 4 0;
#X connect 17 0 7 0;
#X connect 18 0 2 0;
#X connect 18 0 3 0;
#X connect 18 0 6 0;
#X connect 19 0 20 0;
#X connect 20 0 0 0;
#X connect 20 1 4 0;
#X connect 20 2 7 0;
#X restore 13 2 pd fixture1;
#N canvas 568 120 450 300 fixture2 0;
#X floatatom 44 166 5 0 0 0 - - -;
#X obj 44 133 random 255;
#X obj 153 131 random 255;
#X floatatom 155 167 5 0 0 0 - - -;
#X obj 272 132 random 255;
#X floatatom 272 166 5 0 0 0 - - -;
#X text 52 186 Red 1;
#X text 288 185 Blue 1;
#X text 161 184 Green 1;
#X obj 274 241 s osc;
#X obj 45 247 s osc;
#X obj 153 242 s osc;
#X obj 107 96 inlet;
#X obj 224 96 inlet;
#X obj 325 97 inlet;
#X msg 43 207 send /2/fader5 \$1;
#X msg 154 208 send /2/fader4 \$1;
#X msg 270 210 send /2/fader7 \$1;
#X obj 44 100 r random2;
#X obj 44 62 unpack 0 0 0;
#X obj 44 29 r rgb2;
#X connect 0 0 15 0;
#X connect 1 0 0 0;
#X connect 2 0 3 0;
#X connect 3 0 16 0;
#X connect 4 0 5 0;
#X connect 5 0 17 0;
#X connect 12 0 0 0;
#X connect 13 0 3 0;
#X connect 14 0 5 0;
#X connect 15 0 10 0;
#X connect 16 0 11 0;
#X connect 17 0 9 0;
#X connect 18 0 1 0;
#X connect 18 0 2 0;
#X connect 18 0 4 0;
#X connect 19 0 0 0;
#X connect 19 1 3 0;
#X connect 19 2 5 0;
#X connect 20 0 19 0;
#X restore 33 44 pd fixture2;
#N canvas 568 120 450 300 fixture3 0;
#X floatatom 44 175 5 0 0 0 - - -;
#X obj 44 142 random 255;
#X obj 153 140 random 255;
#X floatatom 155 176 5 0 0 0 - - -;
#X obj 272 141 random 255;
#X floatatom 272 175 5 0 0 0 - - -;
#X text 52 195 Red 1;
#X text 288 194 Blue 1;
#X text 161 193 Green 1;
#X obj 274 250 s osc;
#X obj 45 256 s osc;
#X obj 153 251 s osc;
#X obj 107 105 inlet;
#X obj 224 105 inlet;
#X obj 325 106 inlet;
#X msg 43 216 send /1/fader1 \$1;
#X msg 154 217 send /2/fader6 \$1;
#X msg 270 219 send /3/fader8 \$1;
#X obj 44 109 r random4;
#X obj 46 70 unpack 0 0 0;
#X obj 46 37 r rgb3;
#X connect 0 0 15 0;
#X connect 1 0 0 0;
#X connect 2 0 3 0;
#X connect 3 0 16 0;
#X connect 4 0 5 0;
#X connect 5 0 17 0;
#X connect 12 0 0 0;
#X connect 13 0 3 0;
#X connect 14 0 5 0;
#X connect 15 0 10 0;
#X connect 16 0 11 0;
#X connect 17 0 9 0;
#X connect 18 0 1 0;
#X connect 18 0 2 0;
#X connect 18 0 4 0;
#X connect 19 0 0 0;
#X connect 19 1 3 0;
#X connect 19 2 5 0;
#X connect 20 0 19 0;
#X restore 53 80 pd fixture3;
#N canvas 568 120 450 300 fixture4 0;
#X floatatom 46 170 5 0 0 0 - - -;
#X obj 46 137 random 255;
#X obj 155 135 random 255;
#X floatatom 157 171 5 0 0 0 - - -;
#X obj 274 136 random 255;
#X floatatom 274 170 5 0 0 0 - - -;
#X text 54 190 Red 1;
#X text 290 189 Blue 1;
#X text 163 188 Green 1;
#X obj 276 245 s osc;
#X obj 47 251 s osc;
#X obj 155 246 s osc;
#X obj 109 100 inlet;
#X obj 226 100 inlet;
#X obj 327 101 inlet;
#X msg 45 211 send /2/fader3 \$1;
#X msg 156 212 send /3/fader6 \$1;
#X msg 272 214 send /3/fader5 \$1;
#X obj 46 104 r random4;
#X obj 45 61 unpack 0 0 0;
#X obj 45 28 r rgb4;
#X connect 0 0 15 0;
#X connect 1 0 0 0;
#X connect 2 0 3 0;
#X connect 3 0 16 0;
#X connect 4 0 5 0;
#X connect 5 0 17 0;
#X connect 12 0 0 0;
#X connect 13 0 3 0;
#X connect 14 0 5 0;
#X connect 15 0 10 0;
#X connect 16 0 11 0;
#X connect 17 0 9 0;
#X connect 18 0 1 0;
#X connect 18 0 2 0;
#X connect 18 0 4 0;
#X connect 19 0 0 0;
#X connect 19 1 3 0;
#X connect 19 2 5 0;
#X connect 20 0 19 0;
#X restore 81 114 pd fixture4;
#N canvas 568 120 450 300 fixture5 0;
#X floatatom 40 179 5 0 0 0 - - -;
#X obj 40 146 random 255;
#X obj 149 144 random 255;
#X floatatom 151 180 5 0 0 0 - - -;
#X obj 268 145 random 255;
#X floatatom 268 179 5 0 0 0 - - -;
#X text 48 199 Red 1;
#X text 284 198 Blue 1;
#X text 157 197 Green 1;
#X obj 270 254 s osc;
#X obj 41 260 s osc;
#X obj 149 255 s osc;
#X obj 103 109 inlet;
#X obj 220 109 inlet;
#X obj 321 110 inlet;
#X msg 39 220 send /1/fader4 \$1;
#X msg 150 221 send /3/fader4 \$1;
#X msg 266 223 send /3/fader7 \$1;
#X obj 40 113 r random5;
#X obj 42 74 unpack 0 0 0;
#X obj 42 41 r rgb5;
#X connect 0 0 15 0;
#X connect 1 0 0 0;
#X connect 2 0 3 0;
#X connect 3 0 16 0;
#X connect 4 0 5 0;
#X connect 5 0 17 0;
#X connect 12 0 0 0;
#X connect 13 0 3 0;
#X connect 14 0 5 0;
#X connect 15 0 10 0;
#X connect 16 0 11 0;
#X connect 17 0 9 0;
#X connect 18 0 1 0;
#X connect 18 0 2 0;
#X connect 18 0 4 0;
#X connect 19 0 0 0;
#X connect 19 1 3 0;
#X connect 19 2 5 0;
#X connect 20 0 19 0;
#X restore 101 148 pd fixture5;
#X restore 1098 266 pd fixtures;
#N canvas 173 375 516 349 mapInit 0;
#X obj 53 91 textfile;
#X msg 50 49 read /Users/mysterries/Desktop/maps.txt;
#X obj 35 7 loadbang;
#X msg 120 100 print;
#X obj 243 103 uzi 25;
#X obj 52 134 unpack 0 0 0 0 0;
#X obj 42 185 tabwrite map1;
#X obj 40 217 tabwrite map2;
#X obj 43 245 tabwrite map3;
#X obj 43 272 tabwrite map4;
#X obj 44 296 tabwrite map5;
#X obj 39 29 t b b;
#X obj 209 160 table map1;
#X obj 207 187 table map2;
#X obj 206 218 table map3;
#X obj 208 242 table map4;
#X obj 208 277 table map5;
#X obj 266 74 bng 15 250 50 0 empty empty empty 17 7 0 10 -262144 -1
-1;
#X msg 124 77 rewind;
#X connect 0 0 5 0;
#X connect 0 1 18 0;
#X connect 1 0 0 0;
#X connect 2 0 11 0;
#X connect 3 0 0 0;
#X connect 4 0 0 0;
#X connect 4 2 6 1;
#X connect 4 2 7 1;
#X connect 4 2 8 1;
#X connect 4 2 9 1;
#X connect 4 2 10 1;
#X connect 5 0 6 0;
#X connect 5 1 7 0;
#X connect 5 2 8 0;
#X connect 5 3 9 0;
#X connect 5 4 10 0;
#X connect 11 0 4 0;
#X connect 11 1 1 0;
#X connect 17 0 4 0;
#X connect 18 0 0 0;
#X restore 1106 334 pd mapInit;
#X text 219 154;
#X obj 190 193 tabread map2;
#X obj 408 203 tabread map4;
#X obj 514 183 tabread map5;
#X text 184 625 master map listener;
#X obj 53 675 s mapIndex;
#X obj 55 650 random 25;
#X obj 38 153 r mapIndex;
#N canvas 99 194 866 376 colorSpinners 1;
#X obj 19 -1815 s v-light1;
#X obj 122 -1765 s v-light2;
#X obj 211 -1691 s v-light3;
#X obj 362 -1627 s v-light4;
#X obj 498 -1536 s v-light5;
#X obj 22 -1876 r map1Audio;
#X obj 116 -1874 r map2Audio;
#X obj 235 -1767 r map3Audio;
#X obj 335 -1681 r map4Audio;
#X obj 499 -1605 r map5Audio;
#X obj 20 -1848 ColorSpinner 0.919874 0.355055 0.781498;
#X obj 335 -1652 ColorSpinner 0.152941 0.721569 0.12549;
#X obj 113 -1810 ColorSpinner 0.94902 0.658824 0.270588;
#X obj 228 -1726 ColorSpinner 1 0.227451 0.501961;
#X obj 488 -1579 ColorSpinner 0.5 0.701961 0.537255;
#X connect 5 0 10 0;
#X connect 6 0 12 0;
#X connect 7 0 13 0;
#X connect 8 0 11 0;
#X connect 9 0 14 0;
#X connect 10 0 0 0;
#X connect 11 0 3 0;
#X connect 12 0 1 0;
#X connect 13 0 2 0;
#X connect 14 0 4 0;
#X restore 433 349 pd colorSpinners;
#X obj 193 167 r mapIndex;
#X obj 302 170 r mapIndex;
#X obj 407 179 r mapIndex;
#X obj 510 158 r mapIndex;
#X obj 36 194 tabread map1;
#N canvas 380 331 513 399 mapper 0;
#X obj 32 340 s rgb1;
#X obj 35 85 == 0;
#X obj 53 105 r cpk1;
#X obj 32 131 gate;
#X obj 76 173 gate;
#X obj 79 127 == 1;
#X obj 97 147 r cpk2;
#X obj 119 225 gate;
#X obj 122 179 == 2;
#X obj 140 199 r cpk3;
#X obj 162 274 gate;
#X obj 165 228 == 3;
#X obj 183 248 r cpk4;
#X obj 230 297 gate;
#X obj 233 251 == 4;
#X obj 251 271 r cpk5;
#X obj 35 42 inlet;
#X connect 1 0 3 0;
#X connect 2 0 3 1;
#X connect 3 0 0 0;
#X connect 4 0 0 0;
#X connect 5 0 4 0;
#X connect 6 0 4 1;
#X connect 7 0 0 0;
#X connect 8 0 7 0;
#X connect 9 0 7 1;
#X connect 10 0 0 0;
#X connect 11 0 10 0;
#X connect 12 0 10 1;
#X connect 13 0 0 0;
#X connect 14 0 13 0;
#X connect 15 0 13 1;
#X connect 16 0 1 0;
#X connect 16 0 5 0;
#X connect 16 0 8 0;
#X connect 16 0 11 0;
#X connect 16 0 14 0;
#X restore 39 227 pd mapper;
#N canvas 380 331 513 399 mapper 0;
#X obj 35 85 == 0;
#X obj 53 105 r cpk1;
#X obj 32 131 gate;
#X obj 76 173 gate;
#X obj 79 127 == 1;
#X obj 97 147 r cpk2;
#X obj 119 225 gate;
#X obj 122 179 == 2;
#X obj 140 199 r cpk3;
#X obj 162 274 gate;
#X obj 165 228 == 3;
#X obj 183 248 r cpk4;
#X obj 230 297 gate;
#X obj 233 251 == 4;
#X obj 251 271 r cpk5;
#X obj 35 42 inlet;
#X obj 32 340 s rgb2;
#X connect 0 0 2 0;
#X connect 1 0 2 1;
#X connect 2 0 16 0;
#X connect 3 0 16 0;
#X connect 4 0 3 0;
#X connect 5 0 3 1;
#X connect 6 0 16 0;
#X connect 7 0 6 0;
#X connect 8 0 6 1;
#X connect 9 0 16 0;
#X connect 10 0 9 0;
#X connect 11 0 9 1;
#X connect 12 0 16 0;
#X connect 13 0 12 0;
#X connect 14 0 12 1;
#X connect 15 0 0 0;
#X connect 15 0 4 0;
#X connect 15 0 7 0;
#X connect 15 0 10 0;
#X connect 15 0 13 0;
#X restore 178 226 pd mapper;
#N canvas 380 331 513 399 mapper 0;
#X obj 35 85 == 0;
#X obj 53 105 r cpk1;
#X obj 32 131 gate;
#X obj 76 173 gate;
#X obj 79 127 == 1;
#X obj 97 147 r cpk2;
#X obj 119 225 gate;
#X obj 122 179 == 2;
#X obj 140 199 r cpk3;
#X obj 162 274 gate;
#X obj 165 228 == 3;
#X obj 183 248 r cpk4;
#X obj 230 297 gate;
#X obj 233 251 == 4;
#X obj 251 271 r cpk5;
#X obj 35 42 inlet;
#X obj 32 340 s rgb3;
#X connect 0 0 2 0;
#X connect 1 0 2 1;
#X connect 2 0 16 0;
#X connect 3 0 16 0;
#X connect 4 0 3 0;
#X connect 5 0 3 1;
#X connect 6 0 16 0;
#X connect 7 0 6 0;
#X connect 8 0 6 1;
#X connect 9 0 16 0;
#X connect 10 0 9 0;
#X connect 11 0 9 1;
#X connect 12 0 16 0;
#X connect 13 0 12 0;
#X connect 14 0 12 1;
#X connect 15 0 0 0;
#X connect 15 0 4 0;
#X connect 15 0 7 0;
#X connect 15 0 10 0;
#X connect 15 0 13 0;
#X restore 302 235 pd mapper;
#N canvas 380 331 513 399 mapper 0;
#X obj 35 85 == 0;
#X obj 53 105 r cpk1;
#X obj 32 131 gate;
#X obj 76 173 gate;
#X obj 79 127 == 1;
#X obj 97 147 r cpk2;
#X obj 119 225 gate;
#X obj 122 179 == 2;
#X obj 140 199 r cpk3;
#X obj 162 274 gate;
#X obj 165 228 == 3;
#X obj 183 248 r cpk4;
#X obj 230 297 gate;
#X obj 233 251 == 4;
#X obj 251 271 r cpk5;
#X obj 35 42 inlet;
#X obj 32 340 s rgb4;
#X connect 0 0 2 0;
#X connect 1 0 2 1;
#X connect 2 0 16 0;
#X connect 3 0 16 0;
#X connect 4 0 3 0;
#X connect 5 0 3 1;
#X connect 6 0 16 0;
#X connect 7 0 6 0;
#X connect 8 0 6 1;
#X connect 9 0 16 0;
#X connect 10 0 9 0;
#X connect 11 0 9 1;
#X connect 12 0 16 0;
#X connect 13 0 12 0;
#X connect 14 0 12 1;
#X connect 15 0 0 0;
#X connect 15 0 4 0;
#X connect 15 0 7 0;
#X connect 15 0 10 0;
#X connect 15 0 13 0;
#X restore 402 239 pd mapper;
#N canvas 380 331 513 399 mapper 0;
#X obj 35 85 == 0;
#X obj 53 105 r cpk1;
#X obj 32 131 gate;
#X obj 76 173 gate;
#X obj 79 127 == 1;
#X obj 97 147 r cpk2;
#X obj 119 225 gate;
#X obj 122 179 == 2;
#X obj 140 199 r cpk3;
#X obj 162 274 gate;
#X obj 165 228 == 3;
#X obj 183 248 r cpk4;
#X obj 230 297 gate;
#X obj 233 251 == 4;
#X obj 251 271 r cpk5;
#X obj 35 42 inlet;
#X obj 32 340 s rgb5;
#X connect 0 0 2 0;
#X connect 1 0 2 1;
#X connect 2 0 16 0;
#X connect 3 0 16 0;
#X connect 4 0 3 0;
#X connect 5 0 3 1;
#X connect 6 0 16 0;
#X connect 7 0 6 0;
#X connect 8 0 6 1;
#X connect 9 0 16 0;
#X connect 10 0 9 0;
#X connect 11 0 9 1;
#X connect 12 0 16 0;
#X connect 13 0 12 0;
#X connect 14 0 12 1;
#X connect 15 0 0 0;
#X connect 15 0 4 0;
#X connect 15 0 7 0;
#X connect 15 0 10 0;
#X connect 15 0 13 0;
#X restore 506 229 pd mapper;
#X obj 307 205 tabread map3;
#X obj 100 230 print map1;
#X obj 199 262 print map2;
#X obj 309 274 print map3;
#X obj 416 278 print map4;
#X obj 504 275 print map5;
#X text 199 419 direct audio listener;
#X obj 65 443 random 5;
#N canvas 290 352 708 254 colorPickers 0;
#X obj 41 117 s cpk1;
#X obj 180 121 s cpk2;
#X obj 293 127 s cpk3;
#X obj 391 126 s cpk4;
#X obj 498 127 s cpk5;
#X obj 41 81 ColorPicker 2 7;
#X obj 177 82 ColorPicker 1 5;
#X obj 284 84 ColorPicker 1 8;
#X obj 392 86 ColorPicker 1 3;
#X obj 498 89 ColorPicker 10 10;
#X connect 5 0 0 0;
#X connect 6 0 1 0;
#X connect 7 0 2 0;
#X connect 8 0 3 0;
#X connect 9 0 4 0;
#X restore 252 350 pd colorPickers;
#X obj 62 522 route 0 1 2 3 4;
#X obj 63 475 t f b;
#X obj 64 500 pack 0 bang;
#X obj 67 562 s map1Audio;
#X obj 143 561 s map2Audio;
#X obj 222 560 s map3Audio;
#X obj 300 562 s map4Audio;
#X obj 378 566 s map5Audio;
#X text 128 441 tell this color spinner to listen directly to audio
for a bit;
#X obj 58 625 BeatListener 20 100;
#X text 435 504 rarely tell all colors to listen to input;
#X obj 376 503 t b;
#X obj 371 477 BeatListener 200 200;
#X obj 410 511 bng 15 250 50 0 empty empty empty 17 7 0 10 -262144
-1 -1;
#X obj 1077 471 loadbang;
#X msg 1110 502 1;
#X obj 991 597 s randomClock;
#X obj 539 384 r randomClock;
#X obj 550 423 bng 15 250 50 0 empty empty empty 17 7 0 10 -262144
-1 -1;
#X obj 895 119 random 1000;
#X obj 608 625 s ambientValue;
#X obj 978 128 r ambientValue;
#X obj 893 197 <;
#X obj 861 92 t b b;
#X obj 678 449 s bpmClock;
#X obj 862 56 r bpmClock;
#X obj 870 234 gate;
#X obj 871 274 bng 15 250 50 0 empty empty empty 17 7 0 10 -262144
-1 -1;
#X obj 872 310 s beat;
#X obj 920 315 s colorSnapshot;
#X obj 922 238 tgl 15 0 empty empty empty 17 7 0 10 -262144 -1 -1 0
1;
#X floatatom 953 199 5 0 0 0 - - -;
#X obj 899 154 / 1000;
#X obj 732 61 r randomClock;
#X obj 736 95 t b b;
#X obj 718 131 random 1000;
#X obj 801 140 r ambientValue;
#X obj 716 209 <;
#X obj 693 246 gate;
#X obj 694 286 bng 15 250 50 0 empty empty empty 17 7 0 10 -262144
-1 -1;
#X obj 695 322 s beat;
#X obj 743 327 s colorSnapshot;
#X obj 745 250 tgl 15 0 empty empty empty 17 7 0 10 -262144 -1 -1 0
1;
#X floatatom 754 220 5 0 0 0 - - -;
#X obj 722 166 / 1000;
#X floatatom 799 223 5 0 0 0 - - -;
#X obj 772 179 expr ((1 - $f1) * (1 - $f1));
#X obj 514 56 r beat;
#X obj 587 64 bng 50 250 50 0 empty empty empty 17 7 0 10 -262144 -1
-1;
#X obj 1187 581 random 5000;
#X msg 710 532 0.5;
#X floatatom 610 587 5 0 0 0 - - -;
#X obj 1192 619 + 5000;
#X obj 603 452 tgl 15 0 empty empty empty 17 7 0 10 -262144 -1 -1 1
1;
#X obj 588 486 gate;
#X text 510 449 manual control;
#X obj 507 425 loadbang;
#X msg 591 424 1;

#X obj 759 517 expr (($f1 - 120) / 60) / 250;
#X obj 66 417 BeatListener 100 100;
#X connect 0 0 2 0;
#X connect 1 0 2 0;
#X connect 3 0 4 0;
#X connect 4 0 68 0;
#X connect 4 0 101 0;
#X connect 5 0 2 0;
#X connect 7 0 110 0;
#X connect 7 1 110 0;
#X connect 8 0 17 0;
#X connect 8 0 76 0;
#X connect 10 0 9 0;
#X connect 10 0 13 0;
#X connect 11 0 12 0;
#X connect 12 0 10 0;
#X connect 14 0 111 0;
#X connect 15 0 0 0;
#X connect 16 0 19 0;
#X connect 17 0 16 0;
#X connect 17 0 106 1;
#X connect 18 0 17 0;
#X connect 19 0 17 1;
#X connect 25 0 39 0;
#X connect 25 0 45 0;
#X connect 26 0 41 0;
#X connect 26 0 47 0;
#X connect 27 0 42 0;
#X connect 27 0 48 0;
#X connect 30 0 29 0;
#X connect 31 0 37 0;
#X connect 33 0 25 0;
#X connect 34 0 43 0;
#X connect 35 0 26 0;
#X connect 36 0 27 0;
#X connect 37 0 38 0;
#X connect 37 0 44 0;
#X connect 43 0 40 0;
#X connect 43 0 46 0;
#X connect 50 0 53 0;
#X connect 52 0 55 0;
#X connect 52 1 56 0;
#X connect 52 2 57 0;
#X connect 52 3 58 0;
#X connect 52 4 59 0;
#X connect 53 0 54 0;
#X connect 53 1 54 1;
#X connect 54 0 52 0;
#X connect 61 0 30 0;
#X connect 63 0 55 0;
#X connect 63 0 56 0;
#X connect 63 0 57 0;
#X connect 63 0 58 0;
#X connect 63 0 59 0;
#X connect 64 0 63 0;
#X connect 65 0 63 0;
#X connect 66 0 67 0;
#X connect 67 0 3 0;
#X connect 69 0 70 0;
#X connect 71 0 84 0;
#X connect 73 0 74 1;
#X connect 74 0 78 0;
#X connect 74 0 82 0;
#X connect 75 0 78 1;
#X connect 75 1 71 0;
#X connect 77 0 75 0;
#X connect 78 0 79 0;
#X connect 79 0 80 0;
#X connect 79 0 81 0;
#X connect 84 0 74 0;
#X connect 84 0 83 0;
#X connect 85 0 86 0;
#X connect 86 0 90 1;
#X connect 86 1 87 0;
#X connect 87 0 96 0;
#X connect 88 0 98 0;
#X connect 89 0 90 0;
#X connect 89 0 94 0;
#X connect 90 0 91 0;
#X connect 91 0 92 0;
#X connect 91 0 93 0;
#X connect 96 0 89 0;
#X connect 96 0 95 0;
#X connect 98 0 89 1;
#X connect 98 0 97 0;
#X connect 99 0 100 0;
#X connect 101 0 104 0;
#X connect 102 0 17 0;
#X connect 103 0 72 0;
#X connect 104 0 4 1;
#X connect 105 0 106 0;
#X connect 106 0 103 0;
#X connect 108 0 109 0;
#X connect 109 0 105 0;
#X connect 110 0 8 0;
#X connect 110 1 14 0;
#X connect 111 0 16 1;
#X connect 111 0 20 0;
#X connect 112 0 50 0;
